<svg xmlns="http://www.w3.org/2000/svg" viewBox="0 0 72 17"><defs><clipPath id="A"><path d="M0 0h72v17H0z"/></clipPath></defs><g clip-path="url(#A)"><path d="M4.417 1.005c1.92-1.066 4.19-1.303 6.29-.657a8.1 8.1 0 0 1 3.366 2.034 8.32 8.32 0 0 1 1.354 1.8 8.04 8.04 0 0 1 1 3.459c.142 2.44-.817 4.812-2.614 6.467-1.043.963-2.324 1.633-3.7 1.94-2.655.593-5.43-.2-7.384-2.084a.86.86 0 0 0-.086-.079l2.25-1.64c1.94 1.58 4.715 1.61 6.69.072a5.31 5.31 0 0 0 1.468-1.769 5.43 5.43 0 0 0-.279-5.457 5.37 5.37 0 0 0-7.2-1.69 5.47 5.47 0 0 0-1.49 1.289c-.512.633-.873 1.374-1.055 2.168H5.52a2.89 2.89 0 0 1 1.533-1.533c1.435-.614 3.1.007 3.78 1.41s.14 3.095-1.23 3.844-3.085.29-3.898-1.043H.35a8.27 8.27 0 0 1 .236-3.789A8.19 8.19 0 0 1 2.77 2.225c.5-.48 1.044-.892 1.647-1.22z" fill="#ffd85a"/><path d="M33.216 4.087h1.34v1.8h1.2v1h-1.2v3.294a1.31 1.31 0 0 0 .086.551c.07.122.196.202.337.215a2.85 2.85 0 0 0 .781-.021v1.046a4.54 4.54 0 0 1-1.7-.02 1.03 1.03 0 0 1-.7-.573 2.84 2.84 0 0 1-.143-.98V6.88h-1v-1h1zm35.8 0h1.34v1.8h1.2v1h-1.2v3.294c-.012.188.018.376.086.55.07.122.196.202.337.215a3.23 3.23 0 0 0 .78-.02v1.046a3.37 3.37 0 0 1-2.041-.172 1.42 1.42 0 0 1-.5-1.26V6.877h-1.012v-1h1zM21.227 6.1a2.87 2.87 0 0 1 1.884-.315 2.76 2.76 0 0 1 1.891 1.268 3.51 3.51 0 0 1 .487 2.242h-4.456a1.93 1.93 0 0 0 .544 1.4c.484.394 1.14.503 1.726.286.4-.16.708-.5.838-.9h1.268a2.58 2.58 0 0 1-.967 1.526 3.1 3.1 0 0 1-2.285.516 2.71 2.71 0 0 1-1.74-.917 3.02 3.02 0 0 1-.652-1.454 4.04 4.04 0 0 1 .179-2.141A3 3 0 0 1 21.227 6.1zm.13 1.354c-.2.277-.302.602-.322.938h3.123a2.34 2.34 0 0 0-.244-.816 1.45 1.45 0 0 0-1.253-.752c-.514-.024-1.005.215-1.304.633zm18.047-1.667a2.5 2.5 0 0 1 .867-.014v1.282a2.13 2.13 0 0 0-1.081.029 1.56 1.56 0 0 0-.917.88 2.72 2.72 0 0 0-.215 1.146v2.865h-1.34V5.878h1.26v1.375c.01-.254.104-.498.265-.695a2.13 2.13 0 0 1 1.16-.78z"/><path d="M42.448 5.842a4.63 4.63 0 0 1 2.055.021 1.99 1.99 0 0 1 1.167.773 1.54 1.54 0 0 1 .236.888V10.6c.007.15-.007.38.172.444a1.74 1.74 0 0 0 .473.007v.938a2.55 2.55 0 0 1-1.11.129.9.9 0 0 1-.58-.3 1.3 1.3 0 0 1-.186-.423 2.37 2.37 0 0 1-.9.537c-.616.22-1.282.258-1.92.107-.45-.1-.844-.386-1.1-.773a1.95 1.95 0 0 1-.2-1.389c.087-.46.383-.854.8-1.067a5.57 5.57 0 0 1 1.676-.4 7.59 7.59 0 0 0 1.2-.2.63.63 0 0 0 .4-.358.75.75 0 0 0-.15-.738 1.37 1.37 0 0 0-.967-.315 1.62 1.62 0 0 0-1.167.337 1.07 1.07 0 0 0-.279.594h-1.332a2.08 2.08 0 0 1 .322-1.024 2.21 2.21 0 0 1 1.4-.864zm.695 3.4a2.23 2.23 0 0 0-.974.315.9.9 0 0 0-.3.9.86.86 0 0 0 .616.523 2 2 0 0 0 1.518-.158c.306-.157.515-.454.56-.795l.007-1.1a3.84 3.84 0 0 1-1.427.327zm15-3.344a3 3 0 0 1 1.468-.129c.783.128 1.474.584 1.9 1.253a3.47 3.47 0 0 1 .5 2.256h-4.455a1.94 1.94 0 0 0 .53 1.382 1.77 1.77 0 0 0 1.776.294 1.42 1.42 0 0 0 .809-.9h1.26c-.13.622-.487 1.173-1 1.547-.672.453-1.493.63-2.292.494a2.68 2.68 0 0 1-1.776-1.01 3.42 3.42 0 0 1-.637-2c-.04-.773.175-1.537.6-2.177.317-.468.775-.822 1.308-1zm-.208 1.447a1.78 1.78 0 0 0-.4 1.046h3.123a2.17 2.17 0 0 0-.229-.788 1.45 1.45 0 0 0-1.232-.781 1.49 1.49 0 0 0-1.261.522zm6.34-1.482a4.28 4.28 0 0 1 2.02-.014 1.97 1.97 0 0 1 1.58 1.747h-1.4a.92.92 0 0 0-.344-.566 1.9 1.9 0 0 0-1.153-.208 1.16 1.16 0 0 0-.709.272c-.093.104-.14.24-.13.38a.52.52 0 0 0 .18.358c.257.186.554.3.867.365.636.107 1.26.27 1.87.487a1.6 1.6 0 0 1 .938.988 1.76 1.76 0 0 1-.358 1.647c-1.25 1.044-3.052 1.102-4.37.143a1.98 1.98 0 0 1-.59-1.435h1.34a1.4 1.4 0 0 0 .172.53c.155.22.384.374.645.437a2.57 2.57 0 0 0 1.167.014 1.01 1.01 0 0 0 .666-.387c.145-.27.08-.602-.158-.795-.418-.25-.885-.405-1.368-.458-.665-.076-1.3-.316-1.848-.7a1.64 1.64 0 0 1-.387-1.719 1.92 1.92 0 0 1 1.372-1.086zm-38.22.014h1.62l1.26 1.862 1.318-1.862H31.8l-2.063 2.815 2.32 3.28h-1.6L28.914 9.73l-1.483 2.242h-1.578l2.285-3.2zm20.747 0h1.418l1.2 4.555q.58-2.277 1.146-4.555h1.354l1.1 4.555 1.24-4.555h1.36l-1.9 6.088h-1.375l-1.13-4.54-1.125 4.54h-1.4q-.945-3.04-1.887-6.088z"/></g></svg>